<?xml version="1.0" encoding="utf-8"?>
<!-- Generator: Adobe Illustrator 19.0.0, SVG Export Plug-In . SVG Version: 6.00 Build 0)  -->
<svg version="1.1" id="Layer_1" xmlns="http://www.w3.org/2000/svg" xmlns:xlink="http://www.w3.org/1999/xlink" x="0px" y="0px"
	 viewBox="0 0 300 300" style="enable-background:new 0 0 300 300;" xml:space="preserve">
<style type="text/css">
	.st0{fill:#EAB497;}
	.st1{fill:#AC516A;}
	.st2{fill:#9BD5C0;}
	.st3{fill:#F1E6E3;}
	.st4{fill:#2F3133;}
</style>
<path id="XMLID_4_" class="st0" d="M252.6,102.6c34.7,19.7,34.7,19.7,34.7,19.7l-34.7,20.8c0.2-1.7,0.6-4.4,1.1-7.7
	c0.8-4.9,1.1-6.2,1.5-9.1c0.4-3.4,0.9-6.7,0.7-10.2C255.7,113,255.1,108.3,252.6,102.6z"/>
<path id="XMLID_3_" class="st1" d="M185,94.9c10.8-11,30.8-17.1,48.1-9.5c2.9,1.3,13,6.2,19.2,17.5c0,0,7.4,13.7,3.1,30.9
	c-1.2,4.9-3.1,8.5-3.1,8.5c-1.5,3-2.1,3.2-3.7,6.2c-2.2,4.4-3.3,9.5-3.3,9.5c-1.4,6.9-1.4,13.4-2.2,19c-0.3,2-1.5,9.3-5.5,17.2
	c-6.2,12.1-15.9,19.5-21.1,23.1c-16.3,11.1-39.4,8.9-58.1,7.6c-19.8-1.5-41-2.7-58.2,7.2c-4.1,2.4-8,5.3-12.4,6.9
	c-9.5,3.4-20.1-0.1-30.2,1.4c5.7-10.1,15.2-18.1,26.1-22c11.2-4,23.4-3.8,35.3-3.6c12.1,0.2,24.3,0.5,36.4,0.1
	c6.4-0.2,13-0.7,18.8-3.3c5.1-2.3,9.4-6.3,11.9-11.2c2.7-5.4,3.1-11.6,3.4-17.6c0.5-11.4,0.8-23-2.6-33.9
	c-2.6-8.4-7.2-16.1-9.6-24.5C174,112.4,177.7,102.3,185,94.9z"/>
<path id="XMLID_5_" class="st2" d="M180.8,160c-2.4-15.9-8.9-31.3-19.1-43.8c-16.3-20-41.8-32.2-67.6-32.1c-19,0.1-38,0.2-57,0.4
	c-11.1,0.1-19.6,9.2-19.7,20.3c-0.1,8.1,5.2,18,13.6,20.1c5.2,1.3,11.5,0.5,16.9,0.6c7.2,0.1,14.3,0.3,21.5,0.4
	c-3.2,4-6.5,8.1-8.5,12.9c-1.6,3.7-3.2,9.2-0.8,15c2.3,5.6,7.1,8.3,8.9,9.3c3.6,2,6.8,2.4,11,2.9c5.5,0.7,7.7,0,17.6-0.2
	c11.2-0.2,12.7,0.6,12.3,1.1c-5.8,6.6-11.6,14.7-10.1,23.3c1.1,6,6.5,10.4,7.6,11.2c1.9,1.5,4.6,3.1,9.4,4.4
	c8.3,2.2,11.6,0.6,24.5,0.8c10.8,0.1,13.1,0.5,21.1,0c4.6-0.3,9.3-1.6,12.5-4.8c3.5-3.4,4.8-8.4,5.7-13.1
	C182.1,179.3,182.2,169.6,180.8,160z"/>
<path id="XMLID_6_" class="st3" d="M217.5,101.4c5.1,0.5,10.1,2.9,13.7,6.5c3,3,5.1,6.8,5.9,11c1.9,10-4.9,20.6-14.5,24.2
	c-3.8,1.4-7.9,1.9-11.8,0.9c-3.7-1-6.9-3.2-9.5-6.1c-11.9-13.3-6-36.3,13.5-36.6C215.7,101.3,216.6,101.3,217.5,101.4z"/>
<path id="XMLID_7_" class="st4" d="M220.1,111.3c5.9,2.2,6.9,9.1,6.9,9.5c0.1,0.7,0.6,5.7-2.9,9.5c-3.4,3.7-9.5,5.2-14.1,2.4
	c-5.6-3.3-6.5-11.5-3.1-16.7C209.5,112.2,215,109.5,220.1,111.3z"/>
</svg>
